Coordinates
version=1
nRows=17
nColumns=34
inDegrees=yes

Units are S.I. units (second, meters, Newtons, ...)
If the header above contains a line with 'inDegrees', this indicates whether rotational values are in degrees (yes) or radians (no).

endheader
time	pelvis_tilt	pelvis_list	pelvis_rotation	pelvis_tx	pelvis_ty	pelvis_tz	hip_flexion_r	hip_adduction_r	hip_rotation_r	knee_angle_r	ankle_angle_r	subtalar_angle_r	mtp_angle_r	hip_flexion_l	hip_adduction_l	hip_rotation_l	knee_angle_l	ankle_angle_l	subtalar_angle_l	mtp_angle_l	lumbar_extension	lumbar_bending	lumbar_rotation	arm_flex_r	arm_add_r	arm_rot_r	elbow_flex_r	pro_sup_r	arm_flex_l	arm_add_l	arm_rot_l	elbow_flex_l	pro_sup_l
      1.48333330	     -0.97176221	      2.34336418	    -10.55306257	     -0.02673904	      1.20325388	     -0.10501577	     -4.28708621	     -0.57333216	     -2.15290445	      0.00000000	      7.61184022	      0.23684592	      0.00000000	     -4.74735014	      4.16035147	     -8.27496801	      0.00000000	      1.76843764	      0.80758318	      0.00000000	      0.81401999	     -1.09072580	     -3.13300672	      4.28036796	     -5.49046782	     11.39833839	     20.28245262	     71.13151722	     -0.26290971	     -8.12168003	      9.99132526	     21.49800132	     57.75151025
      1.50000000	     -0.97964715	      2.36318544	    -10.55145072	     -0.02550749	      1.20130942	     -0.10386144	     -4.31237237	     -0.54922223	     -2.14953614	      0.00000000	      7.61000407	      0.24122276	      0.00000000	     -4.73879635	      4.15844788	     -8.27903087	      0.00000000	      1.77370485	      0.80414710	      0.00000000	      0.81160491	     -1.09721056	     -3.13344801	      4.28801120	     -5.49322984	     11.39916487	     20.28563097	     71.13138041	     -0.26060267	     -8.11595276	      9.99553124	     21.49911381	     57.75273016
      1.51666670	     -0.98488296	      2.35643575	    -10.55542918	     -0.02659053	      1.20609497	     -0.10598133	     -4.29876534	     -0.56178662	     -2.14718282	      0.00000000	      7.61295673	      0.24390044	      0.00000000	     -4.74354692	      4.13464610	     -8.28461651	      0.00000000	      1.78118019	      0.79959357	      0.00000000	      0.81592658	     -1.11036891	     -3.13109481	      4.29362324	     -5.49148189	     11.40081740	     20.28996435	     71.13131825	     -0.26482872	     -8.11262507	     10.00049531	     21.49881636	     57.75416978
      1.53333330	     -0.99171158	      2.35904308	    -10.54640956	     -0.02537693	      1.20757105	     -0.10495668	     -4.27337297	     -0.56958372	     -2.14431670	      0.00000000	      7.61419782	      0.24736006	      0.00000000	     -4.76691401	      4.11735014	     -8.28915834	      0.00000000	      1.78460372	      0.79606473	      0.00000000	      0.81266366	     -1.11521642	     -3.12941052	      4.30444374	     -5.49137592	     11.40214783	     20.29494474	     71.13122074	     -0.26394180	     -8.10355152	     10.00603229	     21.50021905	     57.75574782
      1.55000000	     -1.01035861	      2.33424594	    -10.51596394	     -0.02523968	      1.20366165	     -0.10337346	     -4.28233280	     -0.50636066	     -2.09024742	      0.00000000	      7.62532095	      0.29389094	      0.00000000	     -4.79475995	      4.06245256	     -8.32254252	      0.00000000	      1.80785816	      0.77171245	      0.00000000	      0.81121031	     -1.19393049	     -3.11402142	      4.36991380	     -5.46182973	     11.41810743	     20.33638865	     71.13096925	     -0.27391656	     -8.04773463	     10.05287210	     21.50701749	     57.76938846
      1.56666670	     -1.02546160	      2.35272863	    -10.52018177	     -0.02492079	      1.20598400	     -0.10376798	     -4.28430345	     -0.50143899	     -2.08914029	      0.00000000	      7.62588348	      0.29466134	      0.00000000	     -4.80152432	      4.05361169	     -8.32270480	      0.00000000	      1.80818013	      0.77125406	      0.00000000	      0.81104100	     -1.19361893	     -3.11431231	      4.37028250	     -5.46051709	     11.41859616	     20.33708406	     71.13097584	     -0.27324994	     -8.04802379	     10.05372345	     21.50731285	     57.76968776
      1.58333330	     -1.05638299	      2.36698558	    -10.52454042	     -0.02378406	      1.20259044	     -0.10333370	     -4.31302139	     -0.48483906	     -2.07892546	      0.00000000	      7.62664491	      0.30214098	      0.00000000	     -4.81818701	      4.04776812	     -8.32420031	      0.00000000	      1.80820690	      0.77005856	      0.00000000	      0.80830344	     -1.19853190	     -3.11715327	      4.36917633	     -5.45207498	     11.42160893	     20.34017201	     71.13103940	     -0.27169402	     -8.04756381	     10.05899460	     21.50804799	     57.77141116
      1.60000000	     -1.04825707	      2.31559957	    -10.56414773	     -0.02351530	      1.20537159	     -0.10445099	     -4.37969173	     -0.42367662	     -1.94924023	      0.00000000	      7.67609966	      0.39628259	      0.00000000	     -4.87046095	      3.96751704	     -8.35014938	      0.00000000	      1.84397271	      0.75336694	      0.00000000	      0.83046644	     -1.24303140	     -3.13568984	      4.25416100	     -5.31158214	     11.47210809	     20.36740802	     71.13225081	     -0.38110498	     -8.01550550	     10.14769975	     21.49142085	     57.79843392
      1.61666670	     -1.04968801	      2.30621027	    -10.57497127	     -0.02471394	      1.20534772	     -0.10525705	     -4.39124969	     -0.44340583	     -1.95018575	      0.00000000	      7.68016007	      0.39628700	      0.00000000	     -4.85822294	      3.96180722	     -8.35008675	      0.00000000	      1.84696294	      0.75319652	      0.00000000	      0.83176588	     -1.23796385	     -3.13551973	      4.25273550	     -5.31103634	     11.47327523	     20.36833765	     71.13220728	     -0.38362869	     -8.01829352	     10.15018629	     21.49085565	     57.79932059
      1.63333330	     -1.06774330	      2.34216955	    -10.65982896	     -0.02460801	      1.20281647	     -0.10503203	     -4.34679849	     -0.52279176	     -1.96154274	      0.00000000	      7.76296126	      0.39083194	      0.00000000	     -4.82073305	      4.02674789	     -8.35221051	      0.00000000	      1.91616063	      0.74146106	      0.00000000	      0.76773787	     -1.10729101	     -3.13646495	      4.25561296	     -5.31489852	     11.49012066	     20.38384875	     71.13131823	     -0.40089152	     -8.02429145	     10.19376254	     21.49033323	     57.81420665
      1.65000000	     -1.05952522	      2.32598953	    -10.65848360	     -0.02566585	      1.20179108	     -0.10539376	     -4.33769814	     -0.53820090	     -1.96275790	      0.00000000	      7.77309559	      0.38954643	      0.00000000	     -4.80845429	      4.02310955	     -8.35507701	      0.00000000	      1.92757460	      0.73839134	      0.00000000	      0.76192829	     -1.10689112	     -3.13248348	      4.26071502	     -5.31739221	     11.49157424	     20.38684214	     71.13122871	     -0.40691360	     -8.02160837	     10.19896084	     21.48982129	     57.81581991
      1.66666670	     -1.05970143	      2.31813805	    -10.65645077	     -0.02523912	      1.20383029	     -0.10508457	     -4.32965643	     -0.54318965	     -1.96297609	      0.00000000	      7.77508488	      0.38894862	      0.00000000	     -4.80524127	      4.02596316	     -8.35538948	      0.00000000	      1.92971959	      0.73764845	      0.00000000	      0.76031300	     -1.10594737	     -3.13184263	      4.26205752	     -5.31758576	     11.49177098	     20.38744856	     71.13122332	     -0.40723816	     -8.02131680	     10.19961857	     21.48989024	     57.81603475
      1.68333330	     -1.17933492	      2.35289076	    -10.72381687	     -0.02522068	      1.20615522	     -0.10538362	     -4.12093432	     -0.59358983	     -2.01789720	      0.00000000	      7.94124004	      0.34933438	      0.00000000	     -4.63690066	      4.06531286	     -8.37698925	      0.00000000	      2.10614592	      0.70069465	      0.00000000	      0.50781233	     -0.97776429	     -3.06248864	      4.32794254	     -5.30563896	     11.51728528	     20.42505966	     71.13131895	     -0.49014322	     -7.98460906	     10.26572437	     21.47523093	     57.83657372
      1.70000000	     -1.21269178	      2.32849648	    -10.80247279	     -0.02529602	      1.20460108	     -0.10547606	     -4.03758783	     -0.58586214	     -2.00118496	      0.00000000	      8.02589536	      0.35948486	      0.00000000	     -4.60646173	      4.05180280	     -8.39380397	      0.00000000	      2.21184784	      0.68447329	      0.00000000	      0.51371852	     -0.98201150	     -3.11757461	      4.36414732	     -5.34228018	     11.53212238	     20.45477190	     71.13056130	     -0.40938767	     -7.97203024	     10.31613391	     21.51536404	     57.85490737
      1.71666670	     -1.20980822	      2.32115921	    -10.79987847	     -0.02478745	      1.20576995	     -0.10517473	     -4.02928140	     -0.59085594	     -2.00071768	      0.00000000	      8.02696996	      0.35961486	      0.00000000	     -4.60466700	      4.05383994	     -8.39381188	      0.00000000	      2.21290551	      0.68441246	      0.00000000	      0.51261560	     -0.98084561	     -3.11709415	      4.36472987	     -5.34197202	     11.53240719	     20.45518078	     71.13057089	     -0.40965612	     -7.97228587	     10.31670443	     21.51536942	     57.85511231
      1.73333330	     -1.29026565	      2.35137849	    -10.86544100	     -0.02486072	      1.20461205	     -0.10515940	     -3.91285355	     -0.63138371	     -1.99680913	      0.00000000	      8.10731654	      0.37064700	      0.00000000	     -4.54106274	      4.08414561	     -8.39540549	      0.00000000	      2.28969652	      0.69174595	      0.00000000	      0.39383402	     -0.88307809	     -3.11244506	      4.33210515	     -5.30692411	     11.55894055	     20.46309161	     71.13135950	     -0.44915475	     -8.00036183	     10.36389241	     21.50484731	     57.87187646
      1.75000000	     -1.29414671	      2.35646221	    -10.86767559	     -0.02468887	      1.20529305	     -0.10546589	     -3.91231492	     -0.63020473	     -1.99658341	      0.00000000	      8.10812552	      0.37086896	      0.00000000	     -4.54151796	      4.08076149	     -8.39561227	      0.00000000	      2.29050624	      0.69175087	      0.00000000	      0.39346643	     -0.88362153	     -3.11232110	      4.33257787	     -5.30657738	     11.55921709	     20.46348078	     71.13137022	     -0.44925826	     -8.00060299	     10.36448901	     21.50490937	     57.87209144
